<?xml version="1.0" encoding="utf-8"?>
<!-- Generator: Adobe Illustrator 15.0.2, SVG Export Plug-In . SVG Version: 6.00 Build 0)  -->
<!DOCTYPE svg PUBLIC "-//W3C//DTD SVG 1.1//EN" "http://www.w3.org/Graphics/SVG/1.1/DTD/svg11.dtd">
<svg version="1.1" id="Layer_1" xmlns="http://www.w3.org/2000/svg" xmlns:xlink="http://www.w3.org/1999/xlink" x="0px" y="0px"
	 width="51.205px" height="51.205px" viewBox="0 0 51.205 51.205" enable-background="new 0 0 51.205 51.205" xml:space="preserve">
<g>
	<polygon fill="#FFFFFF" points="21.092,38.822 18.541,43.729 23.905,40.51 	"/>
	<polygon fill="#FFFFFF" points="19.47,45.157 31.652,45.157 25.562,41.503 	"/>
	<polygon fill="#FFFFFF" points="29.242,37.308 28.344,35.58 22.778,35.58 21.879,37.308 25.562,39.517 	"/>
	<polygon fill="#FFFFFF" points="27.217,40.51 32.581,43.729 30.031,38.822 	"/>
	<polygon fill="#FFFFFF" points="25.562,30.229 23.664,33.876 27.458,33.876 	"/>
	<path fill="#FFFFFF" d="M25.562,0C11.466,0,0,11.466,0,25.561c0,14.096,11.466,25.562,25.562,25.562
		c14.095,0,25.561-11.466,25.561-25.562C51.122,11.466,39.656,0,25.562,0z M35.456,46.452c-0.154,0.255-0.43,0.41-0.728,0.41H16.395
		c-0.298,0-0.574-0.155-0.729-0.41c-0.155-0.254-0.165-0.571-0.027-0.834l9.071-17.445v-3.317c0-0.47,0.381-0.852,0.852-0.852
		s0.852,0.381,0.852,0.852v3.317l9.071,17.445C35.621,45.881,35.61,46.198,35.456,46.452z M25.562,20.067
		c-2.642,0-4.79,2.148-4.79,4.789c0,0.386,0.046,0.77,0.136,1.14c0.111,0.457-0.169,0.919-0.626,1.03
		c-0.455,0.108-0.917-0.169-1.029-0.626c-0.123-0.502-0.185-1.021-0.185-1.543c0-3.58,2.913-6.493,6.494-6.493
		c3.58,0,6.493,2.913,6.493,6.493c0,0.556-0.071,1.107-0.209,1.64c-0.1,0.383-0.445,0.637-0.824,0.637
		c-0.071,0-0.143-0.008-0.214-0.026c-0.456-0.118-0.729-0.584-0.611-1.04c0.102-0.392,0.155-0.799,0.155-1.21
		C30.351,22.215,28.202,20.067,25.562,20.067z M35.63,32.632c-0.391-0.263-0.494-0.793-0.232-1.184
		c1.312-1.95,2.004-4.231,2.004-6.593c0-6.529-5.312-11.84-11.84-11.84c-6.529,0-11.841,5.311-11.841,11.84
		c0,2.373,0.699,4.663,2.021,6.62c0.264,0.389,0.162,0.918-0.229,1.184c-0.146,0.097-0.312,0.145-0.476,0.145
		c-0.274,0-0.542-0.132-0.707-0.375c-1.514-2.24-2.314-4.858-2.314-7.573c0-7.468,6.076-13.544,13.545-13.544
		c7.468,0,13.544,6.076,13.544,13.544c0,2.701-0.793,5.311-2.294,7.545C36.549,32.79,36.02,32.894,35.63,32.632z M38.847,40.593
		c-0.36,0.305-0.897,0.26-1.2-0.1c-0.304-0.359-0.26-0.896,0.101-1.201c4.262-3.601,6.705-8.862,6.705-14.437
		c0-10.417-8.475-18.891-18.891-18.891c-10.417,0-18.893,8.474-18.893,18.891c0,5.58,2.449,10.847,6.719,14.448
		c0.36,0.303,0.406,0.841,0.101,1.2c-0.168,0.201-0.409,0.303-0.651,0.303c-0.194,0-0.389-0.065-0.549-0.201
		c-4.655-3.926-7.324-9.667-7.324-15.75c0-11.356,9.239-20.595,20.596-20.595c11.355,0,20.595,9.239,20.595,20.595
		C46.156,30.932,43.492,36.669,38.847,40.593z"/>
</g>
</svg>
