<?xml version="1.0" encoding="utf-8"?>
<!-- Generator: Adobe Illustrator 15.0.2, SVG Export Plug-In . SVG Version: 6.00 Build 0)  -->
<!DOCTYPE svg PUBLIC "-//W3C//DTD SVG 1.1//EN" "http://www.w3.org/Graphics/SVG/1.1/DTD/svg11.dtd">
<svg version="1.1" id="Layer_1" xmlns="http://www.w3.org/2000/svg" xmlns:xlink="http://www.w3.org/1999/xlink" x="0px" y="0px"
	 width="51.205px" height="51.205px" viewBox="0 0 51.205 51.205" enable-background="new 0 0 51.205 51.205" xml:space="preserve">
<path fill="#FFFFFF" d="M50.264,20.5h-6.307c-0.418-1.476-1.019-2.944-1.742-4.242l4.46-4.46c0.159-0.16,0.249-0.375,0.249-0.601
	s-0.09-0.442-0.249-0.602L40.608,4.53c-0.333-0.332-0.871-0.332-1.203,0l-4.464,4.463c-1.347-0.723-3.108-1.413-4.236-1.749V0.942
	c0-0.471-0.38-0.851-0.851-0.851H21.35c-0.47,0-0.85,0.38-0.85,0.851v6.307c-1.15,0.343-2.88,1.012-4.236,1.745L11.798,4.53
	c-0.333-0.332-0.87-0.332-1.202,0l-6.066,6.065c-0.332,0.332-0.332,0.871,0,1.203l4.466,4.467c-0.716,1.334-1.383,3.068-1.739,4.235
	H0.942c-0.47,0-0.851,0.38-0.851,0.85v6.804c0,0.47,0.381,0.849,0.851,0.849h6.227c0.369,2.213,1.047,4.411,1.83,5.933l-4.471,4.471
	c-0.16,0.159-0.249,0.376-0.249,0.602c0,0.227,0.089,0.441,0.249,0.602l6.067,6.066c0.32,0.32,0.884,0.318,1.202,0l4.471-4.474
	c0.978,0.499,2.165,0.914,3.152,1.262c0.398,0.141,0.781,0.276,1.079,0.391v6.41c0,0.47,0.38,0.85,0.85,0.85h8.504
	c0.471,0,0.851-0.38,0.851-0.85v-6.41c0.298-0.116,0.683-0.25,1.082-0.393c0.986-0.346,2.17-0.761,3.147-1.259l4.475,4.473
	c0.33,0.331,0.869,0.331,1.201,0l6.065-6.066c0.332-0.333,0.332-0.87,0-1.203l-4.451-4.452c0.785-1.312,1.419-2.624,1.836-5.951
	h6.204c0.471,0,0.851-0.379,0.851-0.849V21.35C51.114,20.88,50.734,20.5,50.264,20.5z M25.603,34.107
	c-4.688,0-8.503-3.816-8.503-8.505c0-4.688,3.815-8.503,8.503-8.503s8.505,3.815,8.505,8.503
	C34.107,30.291,30.291,34.107,25.603,34.107z"/>
</svg>
