<?xml version="1.0" encoding="utf-8"?>
<!-- Generator: Adobe Illustrator 15.0.2, SVG Export Plug-In . SVG Version: 6.00 Build 0)  -->
<!DOCTYPE svg PUBLIC "-//W3C//DTD SVG 1.1//EN" "http://www.w3.org/Graphics/SVG/1.1/DTD/svg11.dtd">
<svg version="1.1" id="Layer_1" xmlns="http://www.w3.org/2000/svg" xmlns:xlink="http://www.w3.org/1999/xlink" x="0px" y="0px"
	 width="51.205px" height="51.205px" viewBox="0 0 51.205 51.205" enable-background="new 0 0 51.205 51.205" xml:space="preserve">
<path fill="#FFFFFF" d="M25.603,0C11.485,0,0,11.485,0,25.603s11.485,25.603,25.603,25.603S51.205,39.72,51.205,25.603
	S39.72,0,25.603,0z M37.82,26.366l-19.369,9.685c-0.121,0.06-0.251,0.089-0.382,0.089c-0.156,0-0.311-0.042-0.448-0.127
	c-0.251-0.156-0.405-0.429-0.405-0.726V15.918c0-0.296,0.153-0.57,0.405-0.726c0.251-0.157,0.566-0.169,0.83-0.038l19.369,9.685
	c0.289,0.145,0.473,0.44,0.473,0.763C38.293,25.926,38.109,26.221,37.82,26.366z"/>
</svg>
