<?xml version="1.0" encoding="utf-8"?>
<!-- Generator: Adobe Illustrator 15.0.2, SVG Export Plug-In . SVG Version: 6.00 Build 0)  -->
<!DOCTYPE svg PUBLIC "-//W3C//DTD SVG 1.1//EN" "http://www.w3.org/Graphics/SVG/1.1/DTD/svg11.dtd">
<svg version="1.1" id="Layer_1" xmlns="http://www.w3.org/2000/svg" xmlns:xlink="http://www.w3.org/1999/xlink" x="0px" y="0px"
	 width="53.905px" height="50px" viewBox="0 0 53.905 50" enable-background="new 0 0 53.905 50" xml:space="preserve">
<path fill="#454545" d="M16.844,13.63c4.062-3.085,8.991-4.759,14.181-4.759c6.278,0,12.181,2.445,16.621,6.885l6.26-6.26
	c-6.112-6.112-14.237-9.478-22.881-9.478c-7.558,0-14.721,2.573-20.486,7.306L5.71,2.496L0,23.813l21.315-5.712L16.844,13.63z"/>
<path fill="#454545" d="M53.905,26.186L32.59,31.898l4.471,4.471c-4.062,3.086-8.991,4.76-14.18,4.76
	c-6.279,0-12.182-2.445-16.621-6.885L0,40.504c6.111,6.111,14.237,9.479,22.881,9.479c7.557,0,14.72-2.574,20.486-7.309l4.828,4.83
	L53.905,26.186z"/>
</svg>
